<svg width="37" height="25" viewBox="0 0 37 25" fill="none" xmlns="http://www.w3.org/2000/svg">
<path d="M37 16.5625C37 17.5 35.15 18.125 32.9917 18.4375C31.6042 15.7812 28.8292 13.75 25.5917 12.3437C25.9 11.875 26.2083 11.5625 26.5167 11.0938H27.75C32.5292 10.9375 37 13.9063 37 16.5625ZM10.4833 10.9375H9.25C4.47083 10.9375 0 13.9063 0 16.5625C0 17.5 1.85 18.125 4.00833 18.4375C5.39583 15.7812 8.17083 13.75 11.4083 12.3437L10.4833 10.9375ZM18.5 12.5C21.8917 12.5 24.6667 9.6875 24.6667 6.25C24.6667 2.8125 21.8917 0 18.5 0C15.1083 0 12.3333 2.8125 12.3333 6.25C12.3333 9.6875 15.1083 12.5 18.5 12.5ZM18.5 14.0625C12.1792 14.0625 6.16667 18.125 6.16667 21.875C6.16667 25 18.5 25 18.5 25C18.5 25 30.8333 25 30.8333 21.875C30.8333 18.125 24.8208 14.0625 18.5 14.0625ZM27.2875 9.375H27.75C30.3708 9.375 32.375 7.34375 32.375 4.6875C32.375 2.03125 30.3708 0 27.75 0C26.9792 0 26.3625 0.15625 25.7458 0.46875C26.9792 2.03125 27.75 4.0625 27.75 6.25C27.75 7.34375 27.5958 8.4375 27.2875 9.375ZM9.25 9.375H9.7125C9.40417 8.4375 9.25 7.34375 9.25 6.25C9.25 4.0625 10.0208 2.03125 11.2542 0.46875C10.6375 0.15625 10.0208 0 9.25 0C6.62917 0 4.625 2.03125 4.625 4.6875C4.625 7.34375 6.62917 9.375 9.25 9.375Z" fill="#434343"/>
</svg>
