<svg width="30" height="25" viewBox="0 0 30 25" fill="none" xmlns="http://www.w3.org/2000/svg">
<path fill-rule="evenodd" clip-rule="evenodd" d="M13.3333 17.1875C18.6433 17.1875 23.4083 18.0797 26.6667 21.9734V25H0V21.9734C3.25833 18.0781 8.02333 17.1875 13.3333 17.1875ZM13.3333 12.5C11.5652 12.5 9.86953 11.8415 8.61929 10.6694C7.36905 9.49732 6.66667 7.9076 6.66667 6.25C6.66667 4.5924 7.36905 3.00268 8.61929 1.83058C9.86953 0.65848 11.5652 0 13.3333 0C15.1014 0 16.7971 0.65848 18.0474 1.83058C19.2976 3.00268 20 4.5924 20 6.25C20 7.9076 19.2976 9.49732 18.0474 10.6694C16.7971 11.8415 15.1014 12.5 13.3333 12.5ZM26.6667 15.625C26.6667 16.0394 26.4911 16.4368 26.1785 16.7299C25.866 17.0229 25.442 17.1875 25 17.1875C24.558 17.1875 24.134 17.0229 23.8215 16.7299C23.5089 16.4368 23.3333 16.0394 23.3333 15.625V14.0625H21.6667C21.2246 14.0625 20.8007 13.8979 20.4882 13.6049C20.1756 13.3118 20 12.9144 20 12.5C20 12.0856 20.1756 11.6882 20.4882 11.3951C20.8007 11.1021 21.2246 10.9375 21.6667 10.9375H23.3333V9.375C23.3333 8.9606 23.5089 8.56317 23.8215 8.27015C24.134 7.97712 24.558 7.8125 25 7.8125C25.442 7.8125 25.866 7.97712 26.1785 8.27015C26.4911 8.56317 26.6667 8.9606 26.6667 9.375V10.9375H28.3333C28.7754 10.9375 29.1993 11.1021 29.5118 11.3951C29.8244 11.6882 30 12.0856 30 12.5C30 12.9144 29.8244 13.3118 29.5118 13.6049C29.1993 13.8979 28.7754 14.0625 28.3333 14.0625H26.6667V15.625Z" fill="#434343"/>
</svg>
