<svg width="25" height="33" viewBox="0 0 25 33" fill="none" xmlns="http://www.w3.org/2000/svg">
<path d="M8.33333 23.7188C8.33333 23.4452 8.22359 23.1829 8.02824 22.9895C7.83289 22.7961 7.56793 22.6875 7.29167 22.6875C7.0154 22.6875 6.75045 22.7961 6.5551 22.9895C6.35975 23.1829 6.25 23.4452 6.25 23.7188V27.8438C6.25 28.1173 6.35975 28.3796 6.5551 28.573C6.75045 28.7664 7.0154 28.875 7.29167 28.875C7.56793 28.875 7.83289 28.7664 8.02824 28.573C8.22359 28.3796 8.33333 28.1173 8.33333 27.8438V23.7188ZM12.5 14.4375C12.7763 14.4375 13.0412 14.5461 13.2366 14.7395C13.4319 14.9329 13.5417 15.1952 13.5417 15.4688V27.8438C13.5417 28.1173 13.4319 28.3796 13.2366 28.573C13.0412 28.7664 12.7763 28.875 12.5 28.875C12.2237 28.875 11.9588 28.7664 11.7634 28.573C11.5681 28.3796 11.4583 28.1173 11.4583 27.8438V15.4688C11.4583 15.1952 11.5681 14.9329 11.7634 14.7395C11.9588 14.5461 12.2237 14.4375 12.5 14.4375ZM18.75 19.5938C18.75 19.3202 18.6403 19.0579 18.4449 18.8645C18.2496 18.6711 17.9846 18.5625 17.7083 18.5625C17.4321 18.5625 17.1671 18.6711 16.9718 18.8645C16.7764 19.0579 16.6667 19.3202 16.6667 19.5938V27.8438C16.6667 28.1173 16.7764 28.3796 16.9718 28.573C17.1671 28.7664 17.4321 28.875 17.7083 28.875C17.9846 28.875 18.2496 28.7664 18.4449 28.573C18.6403 28.3796 18.75 28.1173 18.75 27.8438V19.5938ZM0 4.125C0 3.03098 0.438987 1.98177 1.22039 1.20818C2.00179 0.434597 3.0616 0 4.16667 0H13.7208C14.5494 0.00072209 15.3437 0.327144 15.9292 0.9075L24.0854 8.98013C24.6709 9.5601 24.9998 10.3464 25 11.1664V28.875C25 29.969 24.561 31.0182 23.7796 31.7918C22.9982 32.5654 21.9384 33 20.8333 33H4.16667C3.0616 33 2.00179 32.5654 1.22039 31.7918C0.438987 31.0182 0 29.969 0 28.875V4.125ZM4.16667 2.0625C3.61413 2.0625 3.08423 2.2798 2.69353 2.66659C2.30283 3.05339 2.08333 3.57799 2.08333 4.125V28.875C2.08333 29.422 2.30283 29.9466 2.69353 30.3334C3.08423 30.7202 3.61413 30.9375 4.16667 30.9375H20.8333C21.3859 30.9375 21.9158 30.7202 22.3065 30.3334C22.6972 29.9466 22.9167 29.422 22.9167 28.875V12.375H15.625C14.7962 12.375 14.0013 12.0491 13.4153 11.4689C12.8292 10.8887 12.5 10.1018 12.5 9.28125V2.0625H4.16667ZM15.625 10.3125H22.4854L14.5833 2.48944V9.28125C14.5833 9.55475 14.6931 9.81706 14.8884 10.0105C15.0838 10.2039 15.3487 10.3125 15.625 10.3125Z" fill="#434343"/>
</svg>
